<mxfile host="app.diagrams.net" agent="Mozilla/5.0 (Windows NT 10.0; Win64; x64) AppleWebKit/537.36 (KHTML, like Gecko) Chrome/133.0.0.0 Safari/537.36" version="26.0.14">
  <diagram id="1wISkBNKLmgFcbd3DFtT" name="Trang-1">
    <mxGraphModel dx="2048" dy="759" grid="1" gridSize="10" guides="1" tooltips="1" connect="1" arrows="1" fold="1" page="1" pageScale="1" pageWidth="827" pageHeight="1169" math="0" shadow="0">
      <root>
        <mxCell id="0" />
        <mxCell id="1" parent="0" />
        <mxCell id="7Gp30OX8VLviUWIJlDut-1" style="edgeStyle=orthogonalEdgeStyle;rounded=0;orthogonalLoop=1;jettySize=auto;html=1;exitX=0.5;exitY=1;exitDx=0;exitDy=0;entryX=0.5;entryY=0;entryDx=0;entryDy=0;" edge="1" parent="1" source="7Gp30OX8VLviUWIJlDut-2" target="7Gp30OX8VLviUWIJlDut-6">
          <mxGeometry relative="1" as="geometry">
            <mxPoint x="399" y="176" as="targetPoint" />
          </mxGeometry>
        </mxCell>
        <mxCell id="7Gp30OX8VLviUWIJlDut-2" value="" style="ellipse;fillColor=strokeColor;html=1;" vertex="1" parent="1">
          <mxGeometry x="385" y="110" width="30" height="30" as="geometry" />
        </mxCell>
        <mxCell id="7Gp30OX8VLviUWIJlDut-3" style="edgeStyle=orthogonalEdgeStyle;rounded=0;orthogonalLoop=1;jettySize=auto;html=1;exitX=0.5;exitY=1;exitDx=0;exitDy=0;entryX=0.5;entryY=0;entryDx=0;entryDy=0;" edge="1" parent="1" source="7Gp30OX8VLviUWIJlDut-21" target="7Gp30OX8VLviUWIJlDut-10">
          <mxGeometry relative="1" as="geometry" />
        </mxCell>
        <mxCell id="7Gp30OX8VLviUWIJlDut-4" style="edgeStyle=orthogonalEdgeStyle;rounded=0;orthogonalLoop=1;jettySize=auto;html=1;exitX=0.5;exitY=1;exitDx=0;exitDy=0;entryX=0.5;entryY=0;entryDx=0;entryDy=0;" edge="1" parent="1" source="7Gp30OX8VLviUWIJlDut-21" target="7Gp30OX8VLviUWIJlDut-8">
          <mxGeometry relative="1" as="geometry" />
        </mxCell>
        <mxCell id="7Gp30OX8VLviUWIJlDut-6" value="Đăng nhập" style="rounded=0;whiteSpace=wrap;html=1;" vertex="1" parent="1">
          <mxGeometry x="340" y="210" width="120" height="60" as="geometry" />
        </mxCell>
        <mxCell id="7Gp30OX8VLviUWIJlDut-7" style="edgeStyle=orthogonalEdgeStyle;rounded=0;orthogonalLoop=1;jettySize=auto;html=1;exitX=0.5;exitY=1;exitDx=0;exitDy=0;entryX=0.5;entryY=0;entryDx=0;entryDy=0;" edge="1" parent="1" source="7Gp30OX8VLviUWIJlDut-8" target="7Gp30OX8VLviUWIJlDut-24">
          <mxGeometry relative="1" as="geometry" />
        </mxCell>
        <mxCell id="7Gp30OX8VLviUWIJlDut-8" value="Xem thông tin&lt;div&gt;tài khoản&lt;/div&gt;" style="rounded=0;whiteSpace=wrap;html=1;" vertex="1" parent="1">
          <mxGeometry x="740" y="450" width="120" height="60" as="geometry" />
        </mxCell>
        <mxCell id="7Gp30OX8VLviUWIJlDut-9" style="edgeStyle=orthogonalEdgeStyle;rounded=0;orthogonalLoop=1;jettySize=auto;html=1;exitX=0.5;exitY=1;exitDx=0;exitDy=0;entryX=0.5;entryY=0;entryDx=0;entryDy=0;" edge="1" parent="1" source="7Gp30OX8VLviUWIJlDut-10" target="7Gp30OX8VLviUWIJlDut-13">
          <mxGeometry relative="1" as="geometry" />
        </mxCell>
        <mxCell id="7Gp30OX8VLviUWIJlDut-10" value="Danh mục sản phẩm" style="rounded=0;whiteSpace=wrap;html=1;" vertex="1" parent="1">
          <mxGeometry x="340" y="450" width="120" height="60" as="geometry" />
        </mxCell>
        <mxCell id="7Gp30OX8VLviUWIJlDut-12" value="" style="edgeStyle=orthogonalEdgeStyle;rounded=0;orthogonalLoop=1;jettySize=auto;html=1;exitX=0.5;exitY=1;exitDx=0;exitDy=0;entryX=0.5;entryY=0;entryDx=0;entryDy=0;" edge="1" parent="1" source="7Gp30OX8VLviUWIJlDut-13" target="7Gp30OX8VLviUWIJlDut-16">
          <mxGeometry relative="1" as="geometry" />
        </mxCell>
        <mxCell id="7Gp30OX8VLviUWIJlDut-37" style="edgeStyle=orthogonalEdgeStyle;rounded=0;orthogonalLoop=1;jettySize=auto;html=1;exitX=1;exitY=0.5;exitDx=0;exitDy=0;entryX=0;entryY=0.5;entryDx=0;entryDy=0;" edge="1" parent="1" source="7Gp30OX8VLviUWIJlDut-13" target="7Gp30OX8VLviUWIJlDut-36">
          <mxGeometry relative="1" as="geometry" />
        </mxCell>
        <mxCell id="7Gp30OX8VLviUWIJlDut-40" style="edgeStyle=orthogonalEdgeStyle;rounded=0;orthogonalLoop=1;jettySize=auto;html=1;exitX=0;exitY=0.5;exitDx=0;exitDy=0;entryX=1;entryY=0.5;entryDx=0;entryDy=0;" edge="1" parent="1" source="7Gp30OX8VLviUWIJlDut-13" target="7Gp30OX8VLviUWIJlDut-35">
          <mxGeometry relative="1" as="geometry" />
        </mxCell>
        <mxCell id="7Gp30OX8VLviUWIJlDut-13" value="Hành động?" style="rhombus;" vertex="1" parent="1">
          <mxGeometry x="340" y="570" width="120" height="60" as="geometry" />
        </mxCell>
        <mxCell id="7Gp30OX8VLviUWIJlDut-14" style="edgeStyle=orthogonalEdgeStyle;rounded=0;orthogonalLoop=1;jettySize=auto;html=1;exitX=0.5;exitY=1;exitDx=0;exitDy=0;" edge="1" parent="1" source="7Gp30OX8VLviUWIJlDut-16" target="7Gp30OX8VLviUWIJlDut-32">
          <mxGeometry relative="1" as="geometry">
            <mxPoint x="400" y="810" as="targetPoint" />
          </mxGeometry>
        </mxCell>
        <mxCell id="7Gp30OX8VLviUWIJlDut-15" style="edgeStyle=orthogonalEdgeStyle;rounded=0;orthogonalLoop=1;jettySize=auto;html=1;exitX=1;exitY=0.5;exitDx=0;exitDy=0;entryX=0;entryY=0.5;entryDx=0;entryDy=0;" edge="1" parent="1" source="7Gp30OX8VLviUWIJlDut-32" target="7Gp30OX8VLviUWIJlDut-18">
          <mxGeometry relative="1" as="geometry">
            <mxPoint x="520" y="720" as="targetPoint" />
          </mxGeometry>
        </mxCell>
        <mxCell id="7Gp30OX8VLviUWIJlDut-16" value="Xem chi tiết&amp;nbsp;&lt;div&gt;sản phẩm&lt;/div&gt;" style="rounded=0;whiteSpace=wrap;html=1;" vertex="1" parent="1">
          <mxGeometry x="340" y="690" width="120" height="60" as="geometry" />
        </mxCell>
        <mxCell id="7Gp30OX8VLviUWIJlDut-17" style="edgeStyle=orthogonalEdgeStyle;rounded=0;orthogonalLoop=1;jettySize=auto;html=1;exitX=0.5;exitY=1;exitDx=0;exitDy=0;entryX=0.5;entryY=0;entryDx=0;entryDy=0;" edge="1" parent="1" source="7Gp30OX8VLviUWIJlDut-18" target="7Gp30OX8VLviUWIJlDut-19">
          <mxGeometry relative="1" as="geometry" />
        </mxCell>
        <mxCell id="7Gp30OX8VLviUWIJlDut-18" value="Xem đánh giá" style="rounded=0;whiteSpace=wrap;html=1;" vertex="1" parent="1">
          <mxGeometry x="540" y="810" width="120" height="60" as="geometry" />
        </mxCell>
        <mxCell id="7Gp30OX8VLviUWIJlDut-19" value="Ẩn đánh giá" style="rounded=0;whiteSpace=wrap;html=1;" vertex="1" parent="1">
          <mxGeometry x="540" y="930" width="120" height="60" as="geometry" />
        </mxCell>
        <mxCell id="7Gp30OX8VLviUWIJlDut-20" value="" style="edgeStyle=orthogonalEdgeStyle;rounded=0;orthogonalLoop=1;jettySize=auto;html=1;exitX=0.5;exitY=1;exitDx=0;exitDy=0;entryX=0.5;entryY=0;entryDx=0;entryDy=0;" edge="1" parent="1" source="7Gp30OX8VLviUWIJlDut-6" target="7Gp30OX8VLviUWIJlDut-21">
          <mxGeometry relative="1" as="geometry">
            <mxPoint x="400" y="270" as="sourcePoint" />
            <mxPoint x="200" y="490" as="targetPoint" />
          </mxGeometry>
        </mxCell>
        <mxCell id="7Gp30OX8VLviUWIJlDut-49" style="edgeStyle=orthogonalEdgeStyle;rounded=0;orthogonalLoop=1;jettySize=auto;html=1;exitX=0.5;exitY=1;exitDx=0;exitDy=0;entryX=0.5;entryY=0;entryDx=0;entryDy=0;" edge="1" parent="1" source="7Gp30OX8VLviUWIJlDut-21" target="7Gp30OX8VLviUWIJlDut-48">
          <mxGeometry relative="1" as="geometry" />
        </mxCell>
        <mxCell id="7Gp30OX8VLviUWIJlDut-21" value="Trang chủ" style="rounded=0;whiteSpace=wrap;html=1;" vertex="1" parent="1">
          <mxGeometry x="340" y="310" width="120" height="60" as="geometry" />
        </mxCell>
        <mxCell id="7Gp30OX8VLviUWIJlDut-22" value="Có" style="edgeStyle=orthogonalEdgeStyle;rounded=0;orthogonalLoop=1;jettySize=auto;html=1;exitX=1;exitY=0.5;exitDx=0;exitDy=0;entryX=0;entryY=0.5;entryDx=0;entryDy=0;" edge="1" parent="1" source="7Gp30OX8VLviUWIJlDut-24" target="7Gp30OX8VLviUWIJlDut-26">
          <mxGeometry relative="1" as="geometry" />
        </mxCell>
        <mxCell id="7Gp30OX8VLviUWIJlDut-23" value="Không" style="edgeStyle=orthogonalEdgeStyle;rounded=0;orthogonalLoop=1;jettySize=auto;html=1;exitX=0.5;exitY=1;exitDx=0;exitDy=0;entryX=0.5;entryY=0;entryDx=0;entryDy=0;" edge="1" parent="1" source="7Gp30OX8VLviUWIJlDut-24" target="7Gp30OX8VLviUWIJlDut-29">
          <mxGeometry x="-0.7692" relative="1" as="geometry">
            <Array as="points">
              <mxPoint x="800" y="680" />
              <mxPoint x="800" y="680" />
            </Array>
            <mxPoint as="offset" />
          </mxGeometry>
        </mxCell>
        <mxCell id="7Gp30OX8VLviUWIJlDut-24" value="Thay đổi?" style="rhombus;" vertex="1" parent="1">
          <mxGeometry x="740" y="570" width="120" height="60" as="geometry" />
        </mxCell>
        <mxCell id="7Gp30OX8VLviUWIJlDut-25" style="edgeStyle=orthogonalEdgeStyle;rounded=0;orthogonalLoop=1;jettySize=auto;html=1;exitX=0.5;exitY=0;exitDx=0;exitDy=0;entryX=1;entryY=0.5;entryDx=0;entryDy=0;" edge="1" parent="1" source="7Gp30OX8VLviUWIJlDut-26" target="7Gp30OX8VLviUWIJlDut-8">
          <mxGeometry relative="1" as="geometry" />
        </mxCell>
        <mxCell id="7Gp30OX8VLviUWIJlDut-26" value="Cập nhật thông tin" style="rounded=0;whiteSpace=wrap;html=1;" vertex="1" parent="1">
          <mxGeometry x="940" y="570" width="120" height="60" as="geometry" />
        </mxCell>
        <mxCell id="7Gp30OX8VLviUWIJlDut-27" value="Không" style="edgeStyle=orthogonalEdgeStyle;rounded=0;orthogonalLoop=1;jettySize=auto;html=1;exitX=0;exitY=0.5;exitDx=0;exitDy=0;entryX=1;entryY=0.5;entryDx=0;entryDy=0;" edge="1" parent="1" source="7Gp30OX8VLviUWIJlDut-29" target="7Gp30OX8VLviUWIJlDut-21">
          <mxGeometry x="-0.8261" relative="1" as="geometry">
            <Array as="points">
              <mxPoint x="700" y="720" />
              <mxPoint x="700" y="340" />
            </Array>
            <mxPoint as="offset" />
          </mxGeometry>
        </mxCell>
        <mxCell id="7Gp30OX8VLviUWIJlDut-28" value="Có" style="edgeStyle=orthogonalEdgeStyle;rounded=0;orthogonalLoop=1;jettySize=auto;html=1;exitX=1;exitY=0.5;exitDx=0;exitDy=0;entryX=0;entryY=0.5;entryDx=0;entryDy=0;" edge="1" parent="1" source="7Gp30OX8VLviUWIJlDut-29" target="7Gp30OX8VLviUWIJlDut-30">
          <mxGeometry relative="1" as="geometry" />
        </mxCell>
        <mxCell id="7Gp30OX8VLviUWIJlDut-29" value="Đăng xuất?" style="rhombus;" vertex="1" parent="1">
          <mxGeometry x="740" y="690" width="120" height="60" as="geometry" />
        </mxCell>
        <mxCell id="7Gp30OX8VLviUWIJlDut-30" value="" style="ellipse;html=1;shape=endState;fillColor=strokeColor;" vertex="1" parent="1">
          <mxGeometry x="985" y="705" width="30" height="30" as="geometry" />
        </mxCell>
        <mxCell id="7Gp30OX8VLviUWIJlDut-31" value="Không" style="edgeStyle=orthogonalEdgeStyle;rounded=0;orthogonalLoop=1;jettySize=auto;html=1;exitX=0.5;exitY=1;exitDx=0;exitDy=0;entryX=1;entryY=0.5;entryDx=0;entryDy=0;" edge="1" parent="1">
          <mxGeometry x="-0.9155" relative="1" as="geometry">
            <Array as="points">
              <mxPoint x="200" y="1040" />
              <mxPoint x="290" y="1040" />
              <mxPoint x="290" y="480" />
            </Array>
            <mxPoint as="offset" />
            <mxPoint x="260" y="480" as="targetPoint" />
          </mxGeometry>
        </mxCell>
        <mxCell id="7Gp30OX8VLviUWIJlDut-44" style="edgeStyle=orthogonalEdgeStyle;rounded=0;orthogonalLoop=1;jettySize=auto;html=1;exitX=0.5;exitY=1;exitDx=0;exitDy=0;entryX=0.5;entryY=0;entryDx=0;entryDy=0;" edge="1" parent="1" source="7Gp30OX8VLviUWIJlDut-32" target="7Gp30OX8VLviUWIJlDut-43">
          <mxGeometry relative="1" as="geometry" />
        </mxCell>
        <mxCell id="7Gp30OX8VLviUWIJlDut-32" value="Hành động?" style="rhombus;" vertex="1" parent="1">
          <mxGeometry x="340" y="810" width="120" height="60" as="geometry" />
        </mxCell>
        <mxCell id="7Gp30OX8VLviUWIJlDut-41" style="edgeStyle=orthogonalEdgeStyle;rounded=0;orthogonalLoop=1;jettySize=auto;html=1;exitX=0.5;exitY=0;exitDx=0;exitDy=0;entryX=0.5;entryY=1;entryDx=0;entryDy=0;" edge="1" parent="1" source="7Gp30OX8VLviUWIJlDut-35" target="7Gp30OX8VLviUWIJlDut-39">
          <mxGeometry relative="1" as="geometry" />
        </mxCell>
        <mxCell id="7Gp30OX8VLviUWIJlDut-35" value="Thêm sản phẩm" style="rounded=0;whiteSpace=wrap;html=1;" vertex="1" parent="1">
          <mxGeometry x="140" y="570" width="120" height="60" as="geometry" />
        </mxCell>
        <mxCell id="7Gp30OX8VLviUWIJlDut-38" style="edgeStyle=orthogonalEdgeStyle;rounded=0;orthogonalLoop=1;jettySize=auto;html=1;exitX=0.5;exitY=0;exitDx=0;exitDy=0;entryX=1;entryY=0.5;entryDx=0;entryDy=0;" edge="1" parent="1" source="7Gp30OX8VLviUWIJlDut-36" target="7Gp30OX8VLviUWIJlDut-10">
          <mxGeometry relative="1" as="geometry" />
        </mxCell>
        <mxCell id="7Gp30OX8VLviUWIJlDut-36" value="Lọc/sắp xếp" style="rounded=0;whiteSpace=wrap;html=1;" vertex="1" parent="1">
          <mxGeometry x="540" y="570" width="120" height="60" as="geometry" />
        </mxCell>
        <mxCell id="7Gp30OX8VLviUWIJlDut-42" style="edgeStyle=orthogonalEdgeStyle;rounded=0;orthogonalLoop=1;jettySize=auto;html=1;exitX=1;exitY=0.5;exitDx=0;exitDy=0;entryX=0;entryY=0.5;entryDx=0;entryDy=0;" edge="1" parent="1" source="7Gp30OX8VLviUWIJlDut-39" target="7Gp30OX8VLviUWIJlDut-10">
          <mxGeometry relative="1" as="geometry" />
        </mxCell>
        <mxCell id="7Gp30OX8VLviUWIJlDut-39" value="Thêm thông tin, số lượng, đơn giá" style="rounded=0;whiteSpace=wrap;html=1;" vertex="1" parent="1">
          <mxGeometry x="140" y="450" width="120" height="60" as="geometry" />
        </mxCell>
        <mxCell id="7Gp30OX8VLviUWIJlDut-47" style="edgeStyle=orthogonalEdgeStyle;rounded=0;orthogonalLoop=1;jettySize=auto;html=1;exitX=0;exitY=0.5;exitDx=0;exitDy=0;entryX=0;entryY=0.5;entryDx=0;entryDy=0;" edge="1" parent="1" source="7Gp30OX8VLviUWIJlDut-43" target="7Gp30OX8VLviUWIJlDut-10">
          <mxGeometry relative="1" as="geometry">
            <Array as="points">
              <mxPoint x="300" y="960" />
              <mxPoint x="300" y="480" />
            </Array>
          </mxGeometry>
        </mxCell>
        <mxCell id="7Gp30OX8VLviUWIJlDut-43" value="Thay đổi thông tin&lt;div&gt;hoặc xóa sản phẩm&lt;/div&gt;" style="rounded=0;whiteSpace=wrap;html=1;" vertex="1" parent="1">
          <mxGeometry x="340" y="930" width="120" height="60" as="geometry" />
        </mxCell>
        <mxCell id="7Gp30OX8VLviUWIJlDut-52" style="edgeStyle=orthogonalEdgeStyle;rounded=0;orthogonalLoop=1;jettySize=auto;html=1;entryX=0.5;entryY=0;entryDx=0;entryDy=0;" edge="1" parent="1" source="7Gp30OX8VLviUWIJlDut-48" target="7Gp30OX8VLviUWIJlDut-50">
          <mxGeometry relative="1" as="geometry" />
        </mxCell>
        <mxCell id="7Gp30OX8VLviUWIJlDut-48" value="Thống kê doanh thu" style="rounded=0;whiteSpace=wrap;html=1;" vertex="1" parent="1">
          <mxGeometry x="-60" y="450" width="120" height="60" as="geometry" />
        </mxCell>
        <mxCell id="7Gp30OX8VLviUWIJlDut-53" style="edgeStyle=orthogonalEdgeStyle;rounded=0;orthogonalLoop=1;jettySize=auto;html=1;exitX=0.5;exitY=1;exitDx=0;exitDy=0;entryX=0.5;entryY=0;entryDx=0;entryDy=0;" edge="1" parent="1" source="7Gp30OX8VLviUWIJlDut-50">
          <mxGeometry relative="1" as="geometry">
            <mxPoint y="690" as="targetPoint" />
          </mxGeometry>
        </mxCell>
        <mxCell id="7Gp30OX8VLviUWIJlDut-58" style="edgeStyle=orthogonalEdgeStyle;rounded=0;orthogonalLoop=1;jettySize=auto;html=1;exitX=0.5;exitY=1;exitDx=0;exitDy=0;entryX=0.5;entryY=0;entryDx=0;entryDy=0;" edge="1" parent="1" source="7Gp30OX8VLviUWIJlDut-50" target="7Gp30OX8VLviUWIJlDut-56">
          <mxGeometry relative="1" as="geometry" />
        </mxCell>
        <mxCell id="7Gp30OX8VLviUWIJlDut-50" value="Danh sách sản phẩm và doanh thu" style="rounded=0;whiteSpace=wrap;html=1;" vertex="1" parent="1">
          <mxGeometry x="-60" y="570" width="120" height="60" as="geometry" />
        </mxCell>
        <mxCell id="7Gp30OX8VLviUWIJlDut-56" value="Xem chi tiết&lt;div&gt;doanh thu từng&lt;/div&gt;&lt;div&gt;sản phẩm&lt;/div&gt;" style="rounded=0;whiteSpace=wrap;html=1;" vertex="1" parent="1">
          <mxGeometry x="-260" y="690" width="120" height="60" as="geometry" />
        </mxCell>
        <mxCell id="7Gp30OX8VLviUWIJlDut-60" style="edgeStyle=orthogonalEdgeStyle;rounded=0;orthogonalLoop=1;jettySize=auto;html=1;exitX=1;exitY=0.5;exitDx=0;exitDy=0;entryX=0.5;entryY=1;entryDx=0;entryDy=0;" edge="1" parent="1" source="7Gp30OX8VLviUWIJlDut-57" target="7Gp30OX8VLviUWIJlDut-35">
          <mxGeometry relative="1" as="geometry">
            <Array as="points">
              <mxPoint x="200" y="720" />
            </Array>
          </mxGeometry>
        </mxCell>
        <mxCell id="7Gp30OX8VLviUWIJlDut-57" value="Danh sách sản&amp;nbsp;&lt;div&gt;phẩm hết hàng&lt;/div&gt;" style="rounded=0;whiteSpace=wrap;html=1;" vertex="1" parent="1">
          <mxGeometry x="-60" y="690" width="120" height="60" as="geometry" />
        </mxCell>
      </root>
    </mxGraphModel>
  </diagram>
</mxfile>
